# xmcd
#
# Track frame offsets:
#	150
#	18290
#	48875
#	72730
#
# Disc length: 1267 seconds
#
# Revision: 0
# Processed by: cddbd v1.5.2PL0 Copyright (c) Steve Scherf et al.
# Submitted via: audiograbber 1.83.01
#
DISCID=2f04f104
DTITLE=Joe Public - Live and Learn
DYEAR=1992
DGENRE=R&B
TTITLE0=Live and Learn (Radio Version With Rap)
TTITLE1=Live and Learn (12'' Remix)
TTITLE2=Live and Learn (Extended Dub Mix)
TTITLE3=Live and Learn (LP Extended Mix)
EXTD=
EXTT0=
EXTT1=
EXTT2=
EXTT3=
PLAYORDER=
